<?xml version="1.0" encoding="utf-8"?>
<!-- Generator: Adobe Illustrator 18.0.0, SVG Export Plug-In . SVG Version: 6.00 Build 0)  -->
<!DOCTYPE svg PUBLIC "-//W3C//DTD SVG 1.1//EN" "http://www.w3.org/Graphics/SVG/1.1/DTD/svg11.dtd">
<svg version="1.1" id="icon_x5F_contact-chat" xmlns="http://www.w3.org/2000/svg" xmlns:xlink="http://www.w3.org/1999/xlink"
	 x="0px" y="0px" viewBox="0 16 13 10" enable-background="new 0 16 13 10" xml:space="preserve">
<path fill="#FFFFFF" d="M10.1,19.6c0,0.7-0.3,1.3-0.7,1.8c-0.4,0.6-1.1,1-1.8,1.3C6.8,23.1,6,23.3,5,23.3c-0.4,0-0.8,0-1.3-0.1
	c-0.6,0.4-1.3,0.8-2,0.9c-0.2,0.1-0.4,0.1-0.6,0.1l0,0c-0.1,0-0.1,0-0.2-0.1c-0.1-0.1-0.1-0.1-0.1-0.2l0,0c0,0,0,0,0-0.1l0,0l0,0
	L1,23.8l0,0l0,0l0.3-0.4c0.1-0.1,0.1-0.1,0.2-0.3c0.1-0.1,0.1-0.2,0.2-0.3c0.1-0.1,0.1-0.2,0.2-0.3c-0.6-0.3-1.1-0.8-1.3-1.3
	c-0.3-0.5-0.5-1-0.5-1.6c0-0.7,0.3-1.3,0.7-1.8c0.4-0.6,1.1-1,1.8-1.3C3.3,16.2,4.1,16,5,16c0.9,0,1.8,0.2,2.5,0.5s1.3,0.8,1.8,1.3
	C9.8,18.3,10.1,18.9,10.1,19.6z M12.8,21.4c0,0.6-0.2,1.1-0.5,1.6c-0.3,0.5-0.8,0.9-1.3,1.3c0.1,0.1,0.1,0.3,0.2,0.3
	s0.1,0.2,0.2,0.3l0.3,0.4c0.1,0.1,0.2,0.2,0.2,0.2l0.1,0.1l0.1,0.1v0.2l0,0c0,0.1-0.1,0.1-0.1,0.2C11.8,26,11.7,26,11.6,26
	c-0.3,0-0.4-0.1-0.6-0.1c-0.8-0.2-1.4-0.5-2-0.9c-0.4,0.1-0.8,0.1-1.3,0.1c-1.3,0-2.4-0.3-3.4-0.9c0.3,0,0.5,0,0.6,0
	c0.8,0,1.5-0.1,2.2-0.3c0.7-0.3,1.3-0.5,1.9-0.9c0.6-0.4,1-0.9,1.3-1.5c0.3-0.6,0.5-1.2,0.5-1.8c0-0.3-0.1-0.8-0.2-1.1
	c0.6,0.3,1.1,0.8,1.4,1.3C12.6,20.3,12.8,20.8,12.8,21.4z"/>
</svg>
