<?xml version="1.0" encoding="utf-8"?>
<!-- Generator: Adobe Illustrator 18.0.0, SVG Export Plug-In . SVG Version: 6.00 Build 0)  -->
<!DOCTYPE svg PUBLIC "-//W3C//DTD SVG 1.1//EN" "http://www.w3.org/Graphics/SVG/1.1/DTD/svg11.dtd">
<svg version="1.1" id="icon_x5F_contact-call" xmlns="http://www.w3.org/2000/svg" xmlns:xlink="http://www.w3.org/1999/xlink"
	 x="9px" y="9px" viewBox="0 0 9 9" enable-background="new 0 0 9 9" xml:space="preserve">
<path fill="#FFFFFF" d="M9,7.1c0,0.2,0,0.3-0.1,0.5C8.8,7.7,8.8,7.9,8.8,8C8.7,8.2,8.4,8.5,8,8.7S7.2,9,6.8,9C6.7,9,6.6,9,6.4,9
	C6.4,9,6.2,8.9,6.1,8.9C5.9,8.8,5.8,8.8,5.8,8.8L5.1,8.6C4.7,8.5,4.3,8.3,4,8.1C3.4,7.8,2.8,7.3,2.2,6.7C1.7,6.2,1.2,5.6,0.9,5
	C0.7,4.7,0.5,4.4,0.4,3.9L0.2,3.6C0.1,3.5,0.1,3.3,0.1,3.2C0.1,3.2,0,3.1,0,2.9V2.5c0-0.1,0-0.2,0-0.3C0,1.8,0.1,1.3,0.3,1
	C0.5,0.5,0.7,0.3,1,0.2C1,0.1,1.2,0.1,1.4,0.1C1.6,0,1.7,0,1.9,0C1.9,0,1.9,0,2,0c0.1,0,0.2,0.1,0.4,0.5c0.1,0.1,0.1,0.2,0.2,0.4
	s0.2,0.3,0.2,0.4C2.9,1.4,2.9,1.5,3,1.6c0,0,0.1,0.1,0.2,0.2C3.2,1.9,3.2,2,3.3,2c0,0.1,0.1,0.2,0.1,0.2c0,0.1-0.1,0.2-0.2,0.3
	C3.1,2.6,3,2.7,2.9,2.8C2.7,2.9,2.6,3.1,2.5,3.2C2.3,3.4,2.3,3.4,2.3,3.5s0,0.1,0,0.2l0.1,0.2c0,0,0.1,0.1,0.1,0.2
	c0.1,0.1,0.1,0.2,0.1,0.2c0.3,0.6,0.7,1.1,1.1,1.5c0.5,0.4,0.9,0.8,1.5,1.1c0,0,0.1,0,0.2,0.1c-0.2-0.1-0.1-0.1-0.1,0l0.2,0.1
	c0.1,0,0.1,0,0.2,0s0.2-0.1,0.3-0.2C6,6.6,6.1,6.5,6.2,6.4S6.4,6.1,6.6,6c0.2-0.2,0.2-0.2,0.3-0.2s0.1,0,0.2,0.1
	c0.1,0,0.2,0.1,0.2,0.2c0.1,0.1,0.2,0.1,0.2,0.2l0.8,0.5c0.2,0.1,0.3,0.2,0.4,0.2C8.8,7.1,9,7.1,9,7.1C9,7,9,7,9,7.1z"/>
</svg>
